<?xml version="1.0" encoding="UTF-8"?>
<svg version="1.1" xmlns="http://www.w3.org/2000/svg" width="16" height="16">
<path d="M0 0 C5.28 0 10.56 0 16 0 C16 5.28 16 10.56 16 16 C10.72 16 5.44 16 0 16 C0 10.72 0 5.44 0 0 Z " fill="#F8F9FA" transform="translate(0,0)"/>
<path d="M0 0 C2.4375 0.75 2.4375 0.75 4.4375 2.75 C4.8125 5.1875 4.8125 5.1875 4.4375 7.75 C2.6875 9.625 2.6875 9.625 0.4375 10.75 C-2.56638632 10.48495121 -3.39554275 9.91695725 -5.5625 7.75 C-5.875 4.75 -5.875 4.75 -5.5625 1.75 C-2.5625 -0.25 -2.5625 -0.25 0 0 Z " fill="#8E6859" transform="translate(8.5625,3.25)"/>
<path d="M0 0 C1.65 0.33 3.3 0.66 5 1 C4.67 1.99 4.34 2.98 4 4 C2.35 4.33 0.7 4.66 -1 5 C-1.66 3.68 -2.32 2.36 -3 1 C-2.01 1.495 -2.01 1.495 -1 2 C-0.67 1.34 -0.34 0.68 0 0 Z " fill="#4D4060" transform="translate(7,9)"/>
<path d="M0 0 C0 1.65 0 3.3 0 5 C-1.32 5 -2.64 5 -4 5 C-4 4.34 -4 3.68 -4 3 C-4.99 3 -5.98 3 -7 3 C-5.40442685 -0.19114631 -3.35905282 0 0 0 Z " fill="#AF706D" transform="translate(13,6)"/>
</svg>
